<?xml version="1.0" encoding="UTF-8" standalone="no"?>
<!-- Created with Inkscape (http://www.inkscape.org/) -->

<svg
   width="1914.124"
   height="175.63406"
   viewBox="0 0 1914.124 175.63407"
   version="1.1"
   id="svg5"
   inkscape:version="1.1.2 (b8e25be833, 2022-02-05)"
   sodipodi:docname="32537.svg"
   xmlns:inkscape="http://www.inkscape.org/namespaces/inkscape"
   xmlns:sodipodi="http://sodipodi.sourceforge.net/DTD/sodipodi-0.dtd"
   xmlns="http://www.w3.org/2000/svg"
   xmlns:svg="http://www.w3.org/2000/svg">
  <sodipodi:namedview
     id="namedview7"
     pagecolor="#ffffff"
     bordercolor="#666666"
     borderopacity="1.0"
     inkscape:pageshadow="2"
     inkscape:pageopacity="0.0"
     inkscape:pagecheckerboard="0"
     inkscape:document-units="px"
     showgrid="false"
     inkscape:zoom="0.6609375"
     inkscape:cx="956.974"
     inkscape:cy="540.89835"
     inkscape:window-width="1920"
     inkscape:window-height="991"
     inkscape:window-x="-9"
     inkscape:window-y="-9"
     inkscape:window-maximized="1"
     inkscape:current-layer="layer1" />
  <defs
     id="defs2" />
  <g
     inkscape:label="Layer 1"
     inkscape:groupmode="layer"
     id="layer1"
     transform="translate(-2.9549876,0.98795282)">
    <path
       style="fill:#ff5555;stroke:#000000;stroke-width:0.662929px;stroke-linecap:butt;stroke-linejoin:miter;stroke-opacity:1"
       d="M 3.0316615,119.95282 C 327.4542,42.815733 495.37138,-6.5519986 581.77536,22.451549 c 86.404,29.003543 180.95931,73.434503 229.86723,86.393531 48.90791,12.95903 332.57391,-154.891267 438.54111,-97.501275 105.9671,57.389989 187.4804,90.096115 187.4804,90.096115 0,0 -107.5975,-16.04451 4.8907,1.23419 112.4882,17.27871 467.8857,5.55387 467.8857,5.55387 l 3.2605,0.6171 3.2607,-1.23419"
       id="path77" />
    <path
       style="fill:#ff8080;stroke-width:0.487137"
       id="path1014"
       d="m 4.3532062,127.42674 c 36.2333148,-0.0514 72.4490088,-0.0978 108.6772838,-0.26831 11.28773,-0.0473 22.57382,-0.11567 33.8632,-0.14181 26.28227,-0.0609 45.53206,-0.028 71.93038,0.13882 40.90822,0.25863 81.77305,0.81781 122.63467,1.27562 85.49411,0.71884 171.08126,0.38802 256.60338,0.13468 149.17004,-0.44187 -10.81729,0.0136 135.22904,-0.39721 120.4686,-0.0891 240.847,-1.06037 361.17304,-2.17677 92.0962,-0.81881 184.2537,-1.49576 276.4474,-1.49663 8.3655,0.0351 20.0252,0.0399 28.7724,0.20905 2.3651,0.0458 4.754,0.0928 7.0433,0.22241 1.1039,0.0625 3.3868,0.12607 2.9912,0.34588 -0.586,0.32552 -3.0082,0.32094 -4.4932,0.48861 -3.57,0.4031 -7.1141,0.81573 -10.6712,1.22358 0.254,-0.16742 1.5799,-0.55464 0.762,-0.50227 -8.8234,0.56476 -17.1227,1.42827 -25.7604,2.10239 -10.015,0.78162 -20.0805,1.53671 -30.1921,2.26444 -32.665,2.35094 -65.8145,4.38466 -98.9421,6.44009 -93.885,6.04282 -188.5317,11.56249 -283.15734,17.094 -54.87725,3.32814 -110.33785,6.22915 -165.4699,9.36907 -5.50322,0.50683 -24.0317,2.06084 -17.9722,3.46957 5.21261,1.21184 15.63142,-0.45121 23.42251,-0.7093 26.57323,-0.88026 54.51304,-1.95851 80.89581,-2.89645 17.01047,-0.60476 34.04234,-1.18418 51.06351,-1.77627 71.53931,-2.33854 143.62261,-3.9248 215.87591,-4.97293 27.0794,-0.39282 51.3606,-0.63305 78.2893,-0.92351 9.1472,-0.0834 18.2854,-0.24028 27.4415,-0.25027 6.4056,-0.007 21.036,-0.33217 26.8849,1.14624 3.6443,0.92118 -4.2777,3.20852 -6.3155,3.92991 -1.2964,0.74834 -4.6057,1.79242 -0.3601,2.56401 6.1696,1.1213 20.6521,1.38832 27.1811,1.5766 8.3064,0.23952 27.3158,0.59692 35.9423,0.76718 11.4626,0.38386 15.6904,0.42604 26.3942,1.13558 6.6695,0.44211 14.8752,1.22576 21.2253,1.8194 19.5839,1.83079 1.6695,0.20122 20.6551,1.91129 19.536,1.71674 40.7278,2.37478 61.5549,3.09609 9.7966,0.29031 19.5869,0.59043 29.4147,0.83418 2.259,0.056 4.5106,0.13439 6.7835,0.15711 3.1749,0.0317 6.3572,0.004 9.5358,0.006 31.8797,-0.5124 63.8355,-0.86365 95.5933,-1.64551 18.7973,-0.60267 37.5869,-1.1596 56.5461,-1.49064 17.8876,-0.25371 35.8087,-0.30738 53.6671,-0.64567 0,0 19.054,-2.89201 19.054,-2.89201 v 0 c -17.9468,0.41207 -35.9744,0.51433 -54.0001,0.71133 -5.6235,0.0783 -12.0755,0.15241 -17.7259,0.28592 -13.1673,0.31114 -26.1522,0.89526 -39.2908,1.24752 -31.5068,0.84965 -63.2296,1.29673 -94.9603,1.6255 -3.0341,-0.003 -6.0717,0.0245 -9.1021,-0.006 -2.2613,-0.0224 -4.5032,-0.0971 -6.7515,-0.1518 -9.9076,-0.2408 -19.7946,-0.5155 -29.6907,-0.77506 -20.7792,-0.65902 -41.8575,-1.32039 -61.3996,-2.97462 -15.2814,-1.33943 -5.1112,-0.42285 -20.707,-1.89503 -6.4625,-0.61004 -14.7514,-1.42373 -21.5492,-1.87053 -10.7514,-0.70665 -15.7018,-0.75819 -27.1635,-1.11829 -10.7299,-0.19271 -25.1705,-0.41987 -35.7611,-0.7446 -2.9669,-0.091 -19.9895,-0.57738 -24.5245,-1.31394 -3.4951,-0.56767 0.038,-1.70516 0.9067,-2.17674 2.8395,-1.0795 10.0524,-3.33747 4.2968,-4.57043 -2.4712,-0.52934 -6.1191,-0.83907 -9.645,-0.96445 -10.7815,-0.38338 -39.8594,0.17898 -48.3251,0.29322 -21.1379,0.29683 -59.9111,0.83205 -79.8921,1.15526 -72.2937,1.16942 -144.4254,2.76451 -216.14394,4.97657 -31.65241,1.05293 -63.27595,2.14299 -94.95749,3.15867 -11.22753,0.35995 -22.46155,0.71304 -33.72169,1.0275 -7.05619,0.19705 -14.51446,0.0168 -21.22081,0.50684 -8.88019,0.64889 -16.38157,1.91142 -24.63555,2.84398 -1.78946,0.20218 3.49213,-0.43493 5.2382,-0.65239 56.13039,-3.47391 112.9283,-6.48844 169.09174,-9.94129 47.24088,-2.79225 94.56684,-5.52927 141.75224,-8.36029 46.8386,-2.81021 93.465,-5.76716 140.3311,-8.55862 32.9942,-2.00515 65.9055,-4.03233 98.445,-6.33245 6.0165,-0.4253 47.1958,-3.419 54.7825,-4.13405 12.8058,-1.20694 25.0884,-2.63364 37.6325,-3.95045 3.769,-0.48321 8.0795,-0.82361 11.3072,-1.44964 4.8356,-0.93795 3.6986,-1.44821 -1.1779,-1.71206 -2.492,-0.13486 -5.107,-0.15457 -7.6806,-0.18535 -8.618,-0.10308 -22.4296,-0.0272 -30.334,-0.008 -93.5491,0.53274 -187.0474,1.39277 -280.5674,2.09848 -120.54278,1.04658 -241.10682,2.04813 -361.769,2.27735 -68.13329,0.22483 -136.27062,0.4955 -204.41168,0.60174 -46.28713,0.0721 -83.62588,0.11474 -129.73227,-0.17243 -18.38135,-0.11449 -36.74123,-0.34416 -55.11183,-0.51624 -8.97412,-0.11727 -73.27697,-0.96415 -84.17349,-1.0821 -36.3929,-0.3939 -72.7997,-0.59427 -109.24324,-0.5397 -11.21632,0.0168 -22.43033,0.0739 -33.64548,0.11084 -20.35141,0.0313 -36.638614,0.0807 -56.700706,0.029 -17.794144,-0.0459 -18.271472,-0.10913 -34.468324,-0.19266 -4.743285,-0.0245 -9.489794,-0.0153 -14.232565,-0.0469 0,0 -19.5816088,2.9091 -19.5816088,2.9091 z" />
  </g>
</svg>
