<svg xmlns="http://www.w3.org/2000/svg" version="1.1" width="600px" height="600px" viewBox="0 0 200 200" style="overflow:hidden!important;"><g id="svga-group-wrapper"><g id="svga-group-backs-single"><path id="SvgjsPath12160" d="M0 0h200v200H0V0z" fill="#ecf0f1" stroke-width="none" opacity="1"></path></g><g id="svga-group-humanwrap-move" transform="matrix(1,0,0,1,0,0)"><g id="svga-group-humanwrap"><g id="svga-group-hair-back-move" transform="matrix(1,0,0,1,0,0)"><g id="svga-group-hair-back"></g></g><g id="svga-group-humanbody-back"><path id="SvgjsPath12089" d="M180.8 184.9c-2.3-3.4-38.9-17.8-38.9-17.8l-13.4-5.2-5.6-68.8H76.8L71.3 162l-13.4 5.2S21.4 181.6 19 185c-2.3 3.4-3.3 14.9-3.3 14.9V219h168.5v-19.2c-.1.1-1-11.5-3.4-14.9z" fill="#ebaa82" stroke-width="none" opacity="1" stroke="none"></path></g><g id="svga-group-chinshadow-single"><path id="SvgjsPath12085" d="M73.4 148.4c11.3 14.1 20.9 13.8 20.9 13.8s9.6.3 20.9-13.9c4.4-5.5 8-11.5 10.8-17.1l-3.1-38.1H76.8l-4.3 54.2c.3.3.6.7.9 1.1z" fill="#cc7b48" stroke-width="none" opacity="1" stroke="none"></path></g><g id="svga-group-humanbody-front"><path id="SvgjsPath12090" d="M184.5 219c-.1-6.4-.1-12.8-.1-19.2l-.3-.1s.1-.1.2 0c.1 0 .1.1.1.1v-.4l-.1-.5-.1-.9-.2-1.9c-.2-1.3-.4-2.5-.6-3.8-.2-1.3-.5-2.5-.9-3.8-.4-1.2-.8-2.5-1.5-3.6-.8-.9-1.9-1.5-2.9-2.1-1-.6-2.1-1.1-3.2-1.7-2.1-1.1-4.3-2.1-6.5-3.1-4.4-2-8.7-3.9-13.1-5.7-4.4-1.9-8.8-3.7-13.2-5.5l-13-5.2-1.2-16.9c-.4-5.7-.9-11.5-1.3-17.2l-1.3-17.2-1.5-17.3-.1-.8h-.8c-7.7 0-15.4.1-23.1.1l-23.1.2h-.5v.5L75 110.2l-1.3 17.2c-.8 11.4-1.8 22.8-2.8 34.2-5.6 2.1-11.2 4.2-16.7 6.4-5.6 2.2-11.2 4.5-16.8 6.9-2.8 1.2-5.6 2.4-8.3 3.6-2.8 1.3-5.5 2.5-8.2 4.1-.7.4-1.3.8-2 1.4-.2.1-.4.4-.5.6l-.3.6c-.2.4-.4.7-.5 1.1-.6 1.5-1 3-1.3 4.5-.6 3-1.1 6-1.4 9.1l-.1 19.1v.9h.9l42.1.1H100c14 0 28.1-.1 42.1-.2l42.1-.5h.3v-.3zm-84.5-1-42.1-.1-41.2.1-.1-18.1c.3-3 .6-5.9 1.2-8.9.3-1.4.6-2.9 1.1-4.2.1-.3.3-.7.4-.9l.2-.4.3-.3c.5-.4 1.1-.8 1.8-1.2 2.5-1.5 5.3-2.8 8-4.1 2.7-1.3 5.5-2.5 8.2-3.7 5.5-2.4 11.1-4.8 16.7-7.1s11.2-4.5 16.9-6.7l.2-.1v-.2c.9-11.5 1.7-23 2.7-34.4l1.4-17.2 1.5-16.7 22.6.2c7.4.1 14.8.1 22.3.1l1.3 16.4 1.5 17.2c.5 5.7 1 11.5 1.5 17.2l1.6 17.2v.3l.3.1 13.4 5c4.4 1.7 8.9 3.4 13.3 5.2 4.4 1.8 8.8 3.7 13.2 5.6 2.2 1 4.3 2 6.5 3 1.1.5 2.1 1.1 3.2 1.6 1 .6 2.1 1.2 2.9 2 .7 1.1 1.1 2.3 1.4 3.5.3 1.2.6 2.5.8 3.7.2 1.3.4 2.5.6 3.8l.2 1.9.1.9.1.5v.4c0 6.3 0 12.6-.1 18.9l-41.8-.5c-14 .1-28.1 0-42.1 0z" fill="#bd6630" stroke-width="none" opacity="1" stroke="none"></path><path id="SvgjsPath12091" d="M125.1 142.4s-1.8 23-9.1 32.9c0 0 7.9-25 9.1-32.9zm-34.5 16s5 7.9 11.5 10.1c0 0-9.5 2.2-11.5-10.1zM73.4 140c6.7 25.6 6.7 25.6 8.5 30.7 0 0 .4-12.6-8.5-30.7z" fill="#cc7b48" stroke-width="none" opacity="1" stroke="none"></path></g><g id="svga-group-clothes-single"><path id="SvgjsPath11975" d="M67.8 137.1c-1.1-1.6-5.2 6-4.4 9.6.8 3.7-.8 3.1-.6 6.8.2 3.7-2.5 3.9-2.7 5.4s.2 4.8.2 4.8-11.8 2.1-16.4 4.4-17.5 6.9-19.7 7.9-5.6 2.5-5.8 3.5-1.7-1.4-3.5 2.9-4.4 11.4-3.8 14.3-.4 9.8-.2 11.9c.2 2.1 0 11.4 0 11.4h177.5s-1.2-10.6-.6-14.2 0-13.1-.4-15.2-1.5-7.3-3.1-8.1c0 0 0-3.5-5-6s-15-5-19.7-6.8-15.6-6.4-17-6.9-3.1-1.2-3.1-1.2l-1.9-.2s1.7-6.9 0-8.7-1.7-5.2-2.5-6 2.9-6.2-2.5-8.9c0 0 1.4 2.5-10.2 6.8s-31.2 3.3-41.2 1-12.6-7.3-13.4-8.5z" fill="#000000" stroke-width="none" opacity="1"></path><path id="SvgjsPath11976" d="M132 138.2zm-77 30.3c-2.4.7-4.9 1.4-7.3 2.1-2.4.8-4.8 1.4-7.2 2.6l-.5.3-.3.3-.7.6-1.5 1.1-3 2.3c1.1-.6 2.2-1.2 3.3-1.9.5-.3 1.1-.7 1.6-1l.8-.6.4-.3.3-.2c1.1-.5 2.3-.8 3.5-1.2l3.6-1.1c2.4-.7 4.8-1.5 7.2-2.3 1.2-.4 2.4-.9 3.6-1.4 1.2-.5 2.4-1 3.3-1.9-1.1.7-2.3 1-3.5 1.4-1.2.5-2.4.8-3.6 1.2zm134.4 51.4c-.3-3.1-.6-6.3-.7-9.5 0-1.6-.1-3.2.1-4.6.2-1.7.2-3.3.3-4.9 0-3.2-.1-6.4-.5-9.7-.2-1.7-.6-3.2-1-4.9-.2-.8-.5-1.6-.8-2.4l-.6-1.2c-.2-.3-.4-.6-.7-.9 0-.2-.1-.3-.1-.5l-.3-.9c-.2-.6-.5-1.1-.9-1.6-.7-1-1.6-1.8-2.5-2.4-1.9-1.3-4-2-6-2.8-4-1.4-8.1-2.6-12.1-3.9-2-.6-3.9-1.3-5.9-2.1l-5.9-2.4-5.8-2.2-2.9-1.2c-1-.4-2-.8-3-1.1h-.2l-.8-.1c.4-1.8.6-3.6.5-5.5-.1-.6-.1-1.2-.4-1.8-.1-.3-.3-.7-.6-1l-.2-.3c-.1-.1-.1-.2-.2-.2-.5-.7-.8-1.6-1.1-2.6-.1-.5-.3-1-.4-1.6-.1-.3-.2-.6-.4-.9 0-.1-.1-.1-.1-.2 0-.4.2-.9.3-1.5.1-.5.2-1.1.3-1.7.1-1.2-.1-2.5-.7-3.6-.7-1.1-1.7-1.9-2.7-2.4 0 0-1.4-.6-3.1-.9-1.8-.3-2.8-.4-2.8-.4s.3 4.5.4 5.8c-.6.3-1.1.6-1.7.8-2.7 1.2-5.4 2.2-8.2 2.9-5.7 1.3-11.6 1.8-17.5 1.8s-11.8-.4-17.6-1.5c-2.9-.6-5.7-1.4-8.3-2.8l-1.5-.9c-.1-.2-.1-.4-.1-.6 0-.5.4-5.2.4-5.4s-5.4.6-5.8.8c-.1 0-.2.1-.3.1-.3.2-.5.4-.7.6-.4.5-.7 1-1.1 1.6-.6 1.1-1.1 2.2-1.5 3.4-.4 1.2-.6 2.4-.5 3.7.2 1.2.5 2.4.1 3.6-.2.6-.4 1.2-.5 1.8-.1.6-.1 1.3-.1 1.9.1 1.2-.2 2.4-1.1 3.3-.4.4-.9.8-1.3 1.3-.2.3-.3.7-.3 1v.9c0 1.2.1 2.3.2 3.5-3.6.6-7.1 1.4-10.6 2.3-1.8.5-3.6 1-5.3 1.8-1.7.8-3.3 1.5-5 2.1-3.4 1.3-6.9 2.6-10.3 3.9-1.7.6-3.5 1.2-5.2 2-.8.4-1.7.7-2.5 1.2-.8.4-1.7.8-2.5 1.5-.2.2-.4.4-.6.7h-.4c-.3 0-.7.1-1 .2-.6.3-1 .8-1.3 1.2-.3.4-.5.9-.7 1.3-.7 1.7-1.4 3.4-2.1 5.2-.6 1.8-1.2 3.5-1.7 5.4-.2.9-.4 1.9-.5 2.9 0 .5-.1 1 0 1.6l.1.6v.6c.1 1.7 0 3.6-.1 5.4-.1 1.8-.3 3.7-.2 5.6.1 3.6 0 7.3 0 11v.9h.9l44.4-.4c14.8-.1 29.6-.2 44.4-.1 14.8 0 29.6.2 44.4.3l44.4.3h1l-.7-1.2zM137 153.3l.1.1c.1.1.1.2.2.4.1.4.2.8.2 1.3.1 1.9-.3 4.1-.8 6l-.3 1.1h.2c-.9.8-1.7 1.5-2.6 2.2.2-.5.3-1.1.4-1.6.1-.8.1-1.6 0-2.4-.1-.8-.3-1.6-.6-2.4-.3-.7-.6-1.4-1-2.1v-.2c1.5-.8 2.8-1.6 4.2-2.4zm-10.2 9.5-.1-.2c-.4-.9-.9-1.8-1.4-2.7 2.2-1.1 4.4-2.3 6.6-3.6l.1.1c.4.6.8 1.3 1.1 2 .3.7.6 1.4.7 2.2.2.8.3 1.5.3 2.3 0 .6 0 1.2-.1 1.8-1.4 1.2-2.8 2.3-4.3 3.3-1 .7-2.1 1.5-3.2 2.1 0-.1.1-.3.1-.4.1-1.1.1-2.3.1-3.4.1-1.2.2-2.4.1-3.5zm-4.3.6c-.2-.6-.5-1.2-.9-1.6l2.7-1.2c.1-.1.2-.1.3-.1.5.9.9 1.7 1.4 2.6.1 1.1.2 2.2.2 3.3.1 1.1.1 2.3.2 3.4v.6c-.3.1-.6.3-.8.4-.8.3-1.4.6-2.3.8-.3.1-.6.1-.9.2.2-1.7.3-3.4.4-5-.2-1.2-.1-2.3-.3-3.4zm-9.3 4.8c-.4-.8-.6-1.7-.8-2.6-.1-.4-.1-.7-.2-1.1l.9-.1c.7-.1 1.3-.2 1.9-.4l1-.2 1-.3c1.2-.4 2.5-.9 3.7-1.4.4.4.8.9.9 1.5.2.9.2 1.9.3 3l.2 5.1c-.5.1-.9.2-1.4.2-2.4.4-4.8.7-7.2 1 0-.1.1-.3.1-.4.1-.5.1-.9.1-1.4 0-1-.1-1.9-.5-2.9zm-19.9 3.9c.2.6.2 1.2.5 1.8.1.2.2.4.3.5-1.4 0-2.7-.1-4-.2-.4 0-.8-.1-1.2-.2l-.6-.1-.6-.2-2.4-.9h-.1c-.1-.7-.1-1.3-.2-2 0-.6-.1-1.1 0-1.7.1-.5.2-1.1.4-1.6s.4-1.1.4-1.7h.2c.6.1 1.2.3 1.9.4.3.1.6.2.9.2.3.1.7.2 1.1.2.9.1 1.7.1 2.5.1.1.6.2 1.1.2 1.7v.1c.2 1.2.4 2.4.7 3.6zm.8 1.7c-.2-.6-.2-1.2-.3-1.8-.1-1.2-.3-2.4-.4-3.7 0-.6-.1-1.1-.1-1.7h.6c5.2-.2 10.3-.9 15.5-1.7l2.1-.3c.1.4.1.8.2 1.1.2.9.5 1.9 1 2.7.4.7.6 1.7.7 2.6.1.6.1 1.2.1 1.9-1 .1-1.9.3-2.9.4-3.4.4-6.8.8-10.2.9-2 .1-3.9.2-5.9.2-.3-.1-.4-.3-.4-.6zm41.9-27.6s-.1 0 0 0c-.1-.1-.1 0 0 0zm-2.8-6.8c0-.1.1-.1.1-.1.5.3.9.7 1.1 1.2.4.8.6 1.6.5 2.6-.1.5-.1 1-.2 1.5s-.3 1-.4 1.7c0 .2 0 .4.1.8 0 .1.1.2.1.3l.2.2c.1.1.1.3.2.5.1.5.2 1 .4 1.5.3 1.1.6 2.2 1.3 3.3.1.1.2.3.3.4-1.3.6-2.6 1.2-4 1.8-.1-.9-.2-1.9-.5-2.8-.2-.7-.6-1.2-.7-1.8-.2-.5-.1-1 .1-1.7.1-.6.2-1.3.2-2s-.2-1.4-.5-2c-.3-.6-.6-1.2-1.1-1.7-.3-.3-.6-.6-.9-.8.3-.2.7-.4 1-.6.6-.4 1.3-.8 1.9-1.4.3-.2.6-.5.8-.9zm-6.7 4.4c1-.4 2-.9 2.9-1.4.8.7 1.3 1.6 1.6 2.5.2.6.3 1.2.2 1.8 0 .6-.2 1.2-.3 1.8-.1.3-.1.6-.2 1s0 .8.1 1.1c.2.7.5 1.3.7 1.8.3.9.5 1.9.5 2.9-2.2 1-4.5 2.1-6.8 3v-1.4c-.1-.9-.3-1.7-.7-2.6l-.6-1.2-.3-.6c-.1-.2-.2-.3-.3-.5-.2-.3-.2-.7-.2-.9.1-.3.3-.5.6-.6l.3-.1v-.2c-.1-1-.2-2-.4-2.9-.2-.8-.4-1.5-.8-2.2 1.3-.3 2.5-.8 3.7-1.3zm-3.8 1.4c.2.7.4 1.5.4 2.2.1.9.1 1.8.1 2.6-.4.2-.8.5-.9.9-.2.6-.1 1.1.1 1.5l.3.6c.1.2.2.3.3.5.2.4.3.7.5 1.1.3.8.5 1.6.6 2.3v1.7c-.2.1-.4.2-.6.2l-3 1.2c0-1.1-.1-2.1-.3-3.2-.1-.7-.3-1.3-.7-2-.1-.2-.2-.3-.3-.5-.1-.1-.2-.2-.2-.4-.1-.2-.2-.5-.3-.8-.1-.6 0-1.2.2-1.8.2-.6.4-1.3.4-2-.1-1.2-.6-2.3-1.3-3.2 1.7.1 3.2-.4 4.7-.9zm-4.8 1.4c.1 0 .1 0 0 0 .7.9 1 2.1 1 3.1 0 1.2-1.1 2.3-.9 3.9 0 .4.1.8.3 1.1.1.2.2.3.3.5.1.1.2.2.2.4.2.5.4 1.1.5 1.8.2 1.1.3 2.2.3 3.4-1.1.4-2.1.7-3.2 1-1.2.4-2.4.6-3.7.8l-.4.1c0-1.9-.4-3.7-1.4-5.3-.3-.5-.6-.7-.7-1.1-.1-.3-.1-.7.1-1.1.3-.7.9-1.5 1.6-2l.1-.1v-.1c0-1 0-2-.1-2.9-.1-.8-.2-1.6-.5-2.4 2.3-.4 4.4-.7 6.5-1.1zm-54.5-.4c-.1-1.1.2-2.4.5-3.5.4-1.2.8-2.3 1.4-3.4.3-.5.6-1.1 1-1.5.2-.2.4-.4.7-.6.2-.2.5-.2.7.1 1.5 2.6 3.8 4.6 6.5 6 2.6 1.4 5.5 2.3 8.4 2.9 2.9.6 5.8 1 8.8 1.3 2.9.3 5.9.5 8.9.6 3.8.1 7.5 0 11.3-.4.1.3.1.6.1.9 0 .5.1 1 0 1.4 0 .9-.1 1.8-.2 2.7-.8.5-1.5 1.2-1.9 2.1-.2.5-.3 1.1-.1 1.7.1.3.2.5.4.8.2.3.3.4.4.6.4.7.8 1.6 1 2.5.2.8.3 1.6.3 2.4l-2.6.2c-2.5.4-5.1.8-7.6 1.1-2.6.4-5.1.7-7.6 1-.3 0-.6.1-.9.1-.1-.2-.1-.4-.1-.7.1-1.2.6-2.5 1-3.8v-.2c0-2.1.1-4.3 0-6.5l.1-3.2c.1-1.1.1-2.2.3-3.2-.4 1-.5 2.1-.7 3.2-.2 1.1-.3 2.1-.4 3.2-.2 2.1-.2 4.3-.3 6.4-.2.6-.5 1.2-.7 1.9-.2.7-.3 1.4-.4 2.1 0 .2 0 .6.1.8-.7 0-1.3.1-1.9.1-.3 0-.5 0-.8-.1-.3-.1-.7-.1-1-.2-.7-.1-1.3-.2-1.9-.3h-.3c0-.3-.1-.6-.1-.9-.2-1.1-.3-2.2-.2-3.3.1-.5.2-1 .5-1.6.2-.6.3-1.2.4-1.8.2-1.2.2-2.4.2-3.5.1-1.2-.1-2.4-.2-3.5s-.2-2.3.3-3.4c-.7 1-.7 2.2-.8 3.4 0 1.2 0 2.3-.1 3.4-.1 1.2-.1 2.3-.3 3.4-.1.5-.2 1.1-.4 1.6s-.4 1.1-.5 1.7c-.2 1.2 0 2.5.2 3.6 0 .2.1.4.1.6-2.2-.2-4.3-.4-6.5-.5 2.2.5 4.4.9 6.6 1.4v.1c0 .5-.2 1-.3 1.6-.1.6-.2 1.1-.2 1.8 0 .6.1 1.2.1 1.8.1.6.2 1.2.4 1.8l-4.5-1.6c-1.7-.6-3.4-1.2-5.2-1.8 0-.4.1-.8.2-1.2.1-.3.2-.7.3-1 .1-.3.3-.7.2-1.1 0-.8-.3-1.5-.5-2.1-.2-.7-.2-1.3-.2-2 .1-1.3.8-2.6 1.4-3.8.6-1.1 1.1-2.4 1.2-3.7.6.1 1.2.3 1.7.4 1.8.4 3.8.7 5.7.4-.9-.1-1.9-.2-2.8-.5-.9-.2-1.8-.5-2.7-.7-.7-.2-1.3-.4-2-.6-.2-.6-.3-1.2-.4-1.9-.1-.7-.2-1.4 0-2.1.2-.7.3-1.4.5-2.1.2-.7.4-1.4.9-2-.6.5-.9 1.2-1.2 1.9-.3.7-.6 1.4-.8 2.1-.2.8-.2 1.6-.2 2.3 0 .5.1 1 .2 1.5-.8-.2-1.6-.5-2.5-.7-1.4-.4-2.9-.9-4.4-1.3v-1.2c0-.7 0-1.4-.1-2.1-.1-.6.2-1.3.4-1.9.5-1.3.9-2.7 1.6-3.8-.5.5-.8 1.1-1.2 1.7-.3.6-.7 1.2-.9 1.9-.1.3-.3.6-.4 1-.1.2-.1.3-.2.5 0 .1-.1.2-.1.3v.3c0 .7-.1 1.4-.1 2.1v.9c-.7-.2-1.3-.4-2-.5-.1-.9-.2-1.8-.1-2.7 0-.9.1-1.9.2-2.8.2-.9.4-1.8.7-2.7.3-.9.7-1.7 1.3-2.5-.7.7-1.2 1.5-1.7 2.3-.4.9-.8 1.8-1 2.7-.2.9-.4 1.9-.4 2.9-.1.8 0 1.6 0 2.4-.8-.2-1.7-.4-2.6-.6.4-.8.2-1.9 0-2.8zm11.8 22.9c-1.9-.7-3.9-1.4-5.8-2-.1-1.4 0-2.7.2-4 .2-.7.4-1.6.6-2.4.1-.8.1-1.6 0-2.5v.1-6.3c1.3.5 2.7.9 4.1 1.3.9.3 1.9.5 2.8.8-.1 1.2-.5 2.4-1.1 3.5-.7 1.3-1.3 2.6-1.4 4.2-.1.8.1 1.6.3 2.2.2.7.6 1.4.6 2 0 .3 0 .6-.1.9-.1.4-.1.7-.1 1.1-.2.4-.2.7-.1 1.1zm-6.3-3.7c.1.6.2 1.1.3 1.6-1.4-.5-2.8-.9-4.1-1.4-.1-1.2-.2-2.4-.2-3.6.1-.6.1-1.4.4-1.8.5-.6.8-1.3 1-2 .4-1.4.3-3-.1-4.4-.1-.4-.2-.7-.3-1v-.8c.1-.5.6-1 1-1.3.7.3 1.4.6 2.2.8v6.6c.1.7.1 1.5.1 2.3 0 .8-.2 1.5-.3 2.4-.1 1-.1 1.8 0 2.6zm-49.7 14.3zm-7.4 39.5c.1-3.4.2-6.8.1-10.3-.1-1.7.1-3.6.2-5.4.1-1.8.3-3.7.2-5.6l-.1-.7-.1-.7c-.1-.3-.1-.8 0-1.2.1-.8.2-1.7.4-2.6.4-1.7 1-3.5 1.6-5.2.6-1.7 1.3-3.4 1.9-5.1.3-.8.8-1.6 1.3-1.8.1-.1.2-.1.3-.1.1 0 .2 0 .6.1.1 0 .3 0 .5-.1.1 0 .2-.1.2-.2 1.5 3 3 5.9 4.5 8.8.8 1.6 1.6 3.1 2.3 4.7.3.8.7 1.6.9 2.3.2.8.3 1.7.5 2.5.3 1.7.5 3.5.7 5.2l.7 5.3c.4 3.4.9 6.7 1.5 10.1H11.8zm132.3.2c-14.8.1-29.6.3-44.4.3-14.8.1-29.6 0-44.4-.1l-25.3-.2c.1-3.4.1-6.8-.1-10.2-.2-3.6-.5-7.1-1-10.7-.1-.9-.3-1.8-.5-2.7-.2-1-.7-1.8-1-2.6-.8-1.6-1.7-3.2-2.7-4.7-1.8-2.8-3.6-5.5-5.7-8.1.1-.1.1-.1.1-.2s.1-.2.1-.2v-.1c0-.1.1-.2.3-.3.6-.5 1.4-.9 2.2-1.3.8-.4 1.6-.8 2.5-1.2 1.6-.8 3.4-1.4 5.1-2.1 3.4-1.4 6.9-2.7 10.2-4.1 1.7-.7 3.4-1.5 5-2.3 1.6-.8 3.4-1.3 5.1-1.8 3.5-1 7.1-1.8 10.7-2.6l.2-.1v-.2c-.2-1.2-.3-2.4-.3-3.7v-.9c0-.3.1-.5.2-.8.3-.5.8-.8 1.3-1.3.9-.9 1.3-2.3 1.2-3.6 0-.6 0-1.2.1-1.8.1-.6.3-1.1.5-1.8.1-.2.1-.4.2-.6.8.4 1.5.7 2.3 1-.4.4-.8.9-1 1.5-.1.4-.1.8-.1 1.2.1.4.2.7.3 1.1.4 1.3.5 2.6.2 3.9-.2.6-.3 1.3-.7 1.8-.1.1-.2.4-.3.6-.1.2-.1.4-.1.6v1.1c.1 1.2.3 2.4.6 3.5-1.3-.4-2.7-.9-4.1-1.3l4.2 1.8v.1-.1c4.9 2.2 9.9 4.3 14.9 6.3l4.8 1.9 2.4 1 .6.2.7.2c.5.1.9.3 1.4.3 3.6.5 7.1.4 10.6.2 6.9-.5 13.8-1.4 20.6-2.8.8-.2 1.7-.4 2.6-.6.9-.2 1.8-.6 2.5-1 .1 0 .1-.1.2-.1v.3c0-.1.1-.2.1-.4 1.5-.9 2.8-1.9 4.1-2.9 2.3-2 4.5-4.1 6.6-6.4l.7.1 1.8.2c.9.3 1.9.7 2.8 1.1l2.9 1.2 5.8 2.4 5.9 2.4c1.9.8 4 1.5 6 2.2 4 1.3 8.1 2.4 12 3.9 1.9.7 3.9 1.5 5.5 2.5.8.5 1.5 1.2 2 1.9.3.4.5.8.7 1.1.1.2.2.4.2.6.1.2.1.4.1.5v.4c-1.3.6-2.5 1.3-3.7 2.1-1.4 1.1-2.8 2.2-4 3.7-.6.7-1 1.6-1.4 2.5-.4.8-.6 1.7-.9 2.5-.6 1.7-1 3.4-1.5 5.1-.4 1.7-.8 3.4-1.1 5.2l-.3 2.7c-.1.9-.1 1.8-.1 2.8.4 3.3.6 6.5.8 9.9h-27.2zm27.3-.2c.5-3.3.8-6.6.7-9.9.1-1.6.4-3.3.7-5 .3-1.7.7-3.4 1.1-5.1.4-1.7.8-3.4 1.3-5s.9-3.3 1.8-4.7c.9-1.4 2.1-2.6 3.3-3.8 1-.9 2-1.8 3.1-2.6v.2l.5.1s.2.2.4.5.3.6.5.9c.3.6.5 1.4.8 2.1.4 1.5.8 3.1 1 4.5.4 3.1.5 6.3.5 9.4 0 1.6 0 3.2-.2 4.6-.2 1.7-.2 3.3-.1 5 .1 2.9.4 5.8.6 8.6l-16 .2z" fill="#000000" stroke-width="none" opacity="1"></path></g><g id="svga-group-head" transform="matrix(1,0,0,1,0,0)"><g id="svga-group-ears-left-move" transform="matrix(1,0,0,1,0,0)"><g id="svga-group-ears-left"><path id="SvgjsPath11985" d="M64.76 80.15s-6.05-5.71-11.65-8.37c0 0-2.9.43-6.25 3.44 0 0 2.32 4.96 4.4 7.42 2.07 2.46 5.01 10.72 5.25 13.08.24 2.36-.73 6.67-.59 8.06.14 1.39 3.24 1.5 3.24 1.5s5.71-3.24 9.27-8.23c0-.01-1.08-9.31-3.67-16.9z" fill="#ebaa82" stroke-width="none" opacity="1" stroke="none"></path><path id="SvgjsPath11986" d="M65.07 87.27c.04-.28-8.52-10.28-14.7-11.44 0 0 1.73 5.62 2.89 7.46s4.94 11 4.61 15.67c0 0 3.96-2.27 6.18-4.1 0 0 .54-4.33 1.02-7.59z" fill="#dc9164" stroke-width="none" opacity="1" stroke="none"></path><path id="SvgjsPath11987" d="m46.65 74.98-.18.16.11.21c.65 1.31 1.35 2.58 2.1 3.83s1.55 2.47 2.5 3.58c.88 1.11 1.53 2.42 2.14 3.72.59 1.32 1.11 2.67 1.59 4.03.46 1.37.89 2.75 1.2 4.15.35 1.38.16 2.81 0 4.24-.16 1.43-.44 2.84-.54 4.34-.01.19-.01.38.01.59.04.25.13.49.28.67.3.37.68.56 1.04.71.74.28 1.48.39 2.24.44l.1.01.1-.06c1.83-1.07 3.53-2.3 5.11-3.7.8-.69 1.55-1.43 2.27-2.2.73-.77 1.38-1.6 2.01-2.45l.09-.12-.02-.15c-.4-2.88-.92-5.72-1.56-8.54-.32-1.41-.69-2.81-1.08-4.2-.41-1.39-.87-2.76-1.37-4.12-.86-.87-1.74-1.67-2.64-2.46-.9-.8-1.84-1.55-2.79-2.29-1.91-1.47-3.93-2.81-6.11-3.89l-.09-.04-.1.02c-.65.12-1.22.31-1.8.54-.57.23-1.13.5-1.66.81-.53.31-1.05.64-1.54 1.01-.49.36-.96.75-1.41 1.16zm.6.32c.39-.33.79-.66 1.2-.95.48-.35.98-.66 1.48-.95.52-.28 1.04-.55 1.58-.77.51-.21 1.04-.39 1.55-.5 1.03.5 2.04 1.06 3.02 1.66 1 .64 2.01 1.28 2.98 1.98.98.69 1.92 1.42 2.87 2.15.94.73 1.88 1.5 2.78 2.26a65.5 65.5 0 0 1 1.1 4.17c.33 1.4.64 2.81.9 4.22.52 2.77.98 5.57 1.3 8.37-.59.78-1.2 1.54-1.87 2.24-.71.74-1.44 1.46-2.23 2.13-1.53 1.31-3.16 2.54-4.87 3.58-.64-.04-1.32-.14-1.9-.35-.3-.12-.59-.27-.75-.47-.08-.1-.12-.2-.14-.31-.01-.15-.02-.32-.01-.49.06-1.4.29-2.85.43-4.29.12-1.43.25-2.96-.17-4.4-.37-1.42-.84-2.79-1.35-4.15a54.07 54.07 0 0 0-1.65-4.03c-.6-1.32-1.22-2.64-2.12-3.82-.9-1.12-1.63-2.37-2.32-3.63-.64-1.2-1.24-2.42-1.81-3.65z" fill="#dc9164" stroke-width="none" opacity="1" stroke="none"></path><path id="SvgjsPath11988" d="M55.9 80.14c.92.98 1.71 2.06 2.44 3.17.74 1.11 1.44 2.24 2.05 3.42.63 1.17 1.22 2.36 1.71 3.59l-.07.03c-.67-1.14-1.37-2.27-2.06-3.38-.72-1.11-1.41-2.23-2.18-3.29-.77-1.07-1.53-2.13-2.37-3.14-.69-.85-1.43-1.67-2.27-2.37l1.72 3.94c.67 1.51 1.31 3.03 1.88 4.58a38.98 38.98 0 0 1 1.44 4.76c.26 1.14.48 2.31.53 3.5.14-.27.27-.55.38-.83.28-.73.44-1.5.5-2.28-.46-1.67-.91-3.34-1.32-5.02l.07-.02c.64 1.63 1.22 3.29 1.81 4.94l.01.04v.06c-.02.86-.15 1.71-.42 2.53-.13.41-.29.81-.47 1.19-.19.39-.4.75-.66 1.13l-.8 1.12.09-1.39c.1-1.57-.17-3.19-.49-4.78-.33-1.59-.77-3.17-1.25-4.73-.48-1.56-.99-3.13-1.57-4.67-.6-1.53-1.23-3.05-1.99-4.51l-.26-.5.49.31c1.16.7 2.14 1.63 3.06 2.6z" fill="#bd6630" stroke-width="none" opacity="1" stroke="none"></path></g></g><g id="svga-group-ears-right-move" transform="matrix(1,0,0,1,0,0)"><g id="svga-group-ears-right"><path id="SvgjsPath11989" d="M135.24 80.15s6.05-5.71 11.65-8.37c0 0 2.9.43 6.25 3.44 0 0-2.32 4.96-4.4 7.42s-5.01 10.72-5.25 13.08c-.24 2.36.73 6.67.59 8.06-.14 1.39-3.24 1.5-3.24 1.5s-5.71-3.24-9.27-8.23c0-.01 1.08-9.31 3.67-16.9z" fill="#ebaa82" stroke-width="none" opacity="1" stroke="none"></path><path id="SvgjsPath11990" d="M134.93 87.27c-.04-.28 8.52-10.28 14.7-11.44 0 0-1.73 5.62-2.89 7.46s-4.94 11-4.61 15.67c0 0-3.96-2.27-6.18-4.1 0 0-.54-4.33-1.02-7.59z" fill="#dc9164" stroke-width="none" opacity="1" stroke="none"></path><path id="SvgjsPath11991" d="M151.93 73.82c-.49-.37-1.01-.7-1.54-1.01-.53-.31-1.09-.58-1.66-.81-.58-.23-1.15-.42-1.8-.54l-.1-.02-.09.04c-2.18 1.08-4.2 2.42-6.11 3.89-.95.74-1.89 1.49-2.79 2.29-.9.8-1.79 1.59-2.64 2.46-.5 1.36-.96 2.74-1.37 4.12-.39 1.39-.76 2.79-1.08 4.2-.65 2.82-1.16 5.67-1.56 8.54l-.02.15.09.12c.63.85 1.29 1.68 2.01 2.45.72.77 1.48 1.51 2.27 2.2 1.58 1.39 3.28 2.62 5.11 3.7l.1.06.1-.01c.77-.05 1.5-.16 2.24-.44.36-.15.74-.34 1.04-.71.15-.18.25-.42.28-.67.02-.21.02-.41.01-.59-.1-1.5-.37-2.9-.54-4.34-.16-1.43-.35-2.86 0-4.24.31-1.4.74-2.78 1.2-4.15.48-1.36 1-2.71 1.59-4.03.61-1.3 1.26-2.61 2.14-3.72.94-1.12 1.75-2.34 2.5-3.58.75-1.25 1.45-2.52 2.1-3.83l.11-.21-.18-.16c-.44-.41-.91-.8-1.41-1.16zm-1.01 5.12c-.7 1.26-1.42 2.51-2.32 3.63-.9 1.18-1.52 2.5-2.12 3.82a54.07 54.07 0 0 0-1.65 4.03c-.51 1.36-.98 2.73-1.35 4.15-.42 1.44-.28 2.96-.17 4.4.13 1.44.37 2.9.43 4.29.01.17 0 .34-.01.49-.02.11-.06.21-.14.31-.16.2-.44.36-.75.47-.58.21-1.26.31-1.9.35-1.71-1.04-3.34-2.27-4.87-3.58-.78-.67-1.52-1.38-2.23-2.13-.68-.71-1.29-1.47-1.87-2.24.32-2.8.77-5.59 1.3-8.37.26-1.42.57-2.82.9-4.22.32-1.41.7-2.79 1.1-4.17.9-.76 1.84-1.53 2.78-2.26.95-.73 1.9-1.46 2.87-2.15.97-.69 1.98-1.34 2.98-1.98.98-.6 1.99-1.16 3.02-1.66.51.11 1.05.29 1.55.5.54.23 1.06.49 1.58.77.51.29 1.01.6 1.48.95.42.3.81.62 1.2.95-.55 1.24-1.15 2.46-1.81 3.65z" fill="#dc9164" stroke-width="none" opacity="1" stroke="none"></path><path id="SvgjsPath11992" d="M144.1 80.14c-.92.98-1.71 2.06-2.44 3.17-.74 1.11-1.44 2.24-2.05 3.42-.63 1.17-1.22 2.36-1.71 3.59l.07.03c.67-1.14 1.37-2.27 2.06-3.38.72-1.11 1.41-2.23 2.18-3.29.77-1.07 1.53-2.13 2.37-3.14.69-.85 1.43-1.67 2.27-2.37l-1.72 3.94c-.67 1.51-1.31 3.03-1.88 4.58a38.98 38.98 0 0 0-1.44 4.76c-.26 1.14-.48 2.31-.53 3.5a8.84 8.84 0 0 1-.38-.83c-.28-.73-.44-1.5-.5-2.28.46-1.67.91-3.34 1.32-5.02l-.07-.02c-.64 1.63-1.22 3.29-1.81 4.94l-.01.04v.06c.02.86.15 1.71.42 2.53.13.41.29.81.47 1.19.19.39.4.75.66 1.13l.8 1.12-.09-1.39c-.1-1.57.17-3.19.49-4.78.33-1.59.77-3.17 1.25-4.73.48-1.56.99-3.13 1.57-4.67.6-1.53 1.23-3.05 1.99-4.51l.26-.5-.49.31c-1.16.7-2.14 1.63-3.06 2.6z" fill="#bd6630" stroke-width="none" opacity="1" stroke="none"></path></g></g><g id="svga-group-faceshape-wrap"><g id="svga-group-faceshape-single"><path id="SvgjsPath12071" d="M140.4 54.9c-2.2-10-6.3-16-15.2-20.8-9.3-5-25.2-4.8-25.2-4.8s-15.9-.2-25.2 4.8c-8.8 4.8-13 10.8-15.2 20.8-.9 4 0 13.6 0 13.6s1.2 11.9 1.2 15.3-.6 9.6.2 16.4 6.8 23.5 18.1 37.6 20.9 13.8 20.9 13.8 9.6.3 20.9-13.8 17.3-30.9 18.1-37.6c.8-6.8.2-13 .2-16.4s1.2-15.3 1.2-15.3c-.1-.1.9-9.6 0-13.6z" fill="#ebaa82" stroke-width="none" opacity="1" stroke="none"></path><path id="SvgjsPath12072" d="M140.4 54.9c-2.2-10-6.3-16-15.2-20.8-9.3-5-25.2-4.8-25.2-4.8s-15.9-.2-25.2 4.8c-8.8 4.8-13 10.8-15.2 20.8-.9 4 0 13.6 0 13.6s1.2 11.9 1.2 15.3-.6 9.6.2 16.4 6.8 23.5 18.1 37.6 20.9 13.8 20.9 13.8 9.6.3 20.9-13.8 17.3-30.9 18.1-37.6c.8-6.8.2-13 .2-16.4s1.2-15.3 1.2-15.3c-.1-.1.9-9.6 0-13.6zm0 10.1c-.1 1.1-.2 2.2-.3 3.4l-.5 4.9c-.2 1.6-.4 3.3-.5 4.9-.2 1.7-.3 3.3-.4 5-.1 1.7 0 3.3 0 5 0 3.3-.1 6.6-.4 9.8 0 .4-.1.8-.1 1.2l-.1.6-.1.6c-.1.8-.3 1.6-.5 2.3-.4 1.6-.9 3.1-1.4 4.7-1.1 3.1-2.3 6.1-3.7 9.1s-2.9 5.9-4.6 8.7c-.4.7-.8 1.4-1.3 2.1-.4.7-.8 1.4-1.3 2.1l-1.4 2-1.4 2c-.5.7-1 1.3-1.5 2l-.7 1-.4.5-.4.5-1.6 1.9c-.5.6-1.1 1.2-1.7 1.8-2.3 2.3-4.7 4.4-7.4 6.1-1.4.8-2.7 1.6-4.2 2.1-.7.3-1.5.5-2.2.7s-1.5.3-2.2.4c-.6 0-1.4-.1-2.1-.2-.7-.2-1.5-.4-2.2-.6-1.5-.5-2.9-1.2-4.3-2-2.8-1.6-5.3-3.7-7.6-5.9-2.3-2.3-4.4-4.8-6.3-7.4-2-2.6-3.8-5.4-5.5-8.1-1.7-2.8-3.3-5.7-4.7-8.7-1.4-3-2.7-6-3.8-9.1-.3-.8-.5-1.6-.8-2.3l-.4-1.2-.3-1.2-.3-1.2c-.1-.4-.2-.8-.2-1.2-.1-.4-.1-.8-.2-1.2l-.1-1.2c-.3-3.3-.4-6.6-.3-9.9 0-1.7.1-3.3.1-5s-.1-3.3-.3-5c-.2-3.3-.5-6.6-.8-9.9s-.4-6.6-.3-9.9c0-.8.1-1.6.2-2.4.1-.8.2-1.5.5-2.3.4-1.6.9-3.1 1.5-4.7 1.2-3 2.8-5.8 4.9-8.2.5-.6 1.1-1.1 1.7-1.7.6-.5 1.2-1 1.9-1.5.6-.5 1.3-.9 2-1.4.7-.4 1.4-.9 2.1-1.2.4-.2.7-.4 1.1-.6l1.1-.5.5-.3.6-.2 1.1-.4c.4-.1.8-.3 1.1-.4.4-.1.8-.3 1.1-.4l1.2-.3 1.2-.3c3.2-.7 6.4-1.2 9.6-1.5 1.6-.1 3.3-.3 4.9-.3.8 0 1.6-.1 2.4-.1h2.4c3.3.1 6.5.3 9.8.7 3.2.4 6.5 1.1 9.5 2.2.4.1.8.3 1.1.4l1.1.5.6.3.5.3 1.1.6c1.4.8 2.8 1.7 4.1 2.7s2.5 2.2 3.5 3.4c1.1 1.3 2 2.6 2.8 4.1 1.6 2.9 2.5 6.1 3.3 9.3.2 1.1.3 2.2.3 3.4v3.4c0 1 0 2.1-.1 3.2z" fill="#bd6630" stroke-width="none" opacity="1" stroke="none"></path></g></g><g id="svga-group-mouth-single-move" transform="matrix(1,0,0,1,0,0)"><g id="svga-group-mouth-single"><path id="SvgjsPath12180" d="M119.9 121.9c-.2-.3-.6-.6-.9-.8-.3-.1-.8-.1-.8.4 0 .3.2.6.5.8-.66 1.22-2.4 1.46-3.8 1.56-1.5.1-2.71.22-4.49-.17-3.42-.92-6.52-1.82-9.62-1.62-2.9.1-5.13.98-7.93 1.78-3.3.9-7.66 2.74-9.96-.66.3-.2.6-.4.8-.7.4-.4 0-1-.5-.9-1 .3-2.3 1.6-2.2 2.7 0 .2.3.4.5.3.4-.3.7-.7 1-1 .9 1.7 2.7 2.5 4.7 2.7 2 .1 3.9-.5 5.9-.9 2.2-.5 4.4-.7 6.6-.8 4.1-.1 8.1.2 12.2.4 2.4.1 5.7.4 7.5-1.5.1.3.2.6.5.8.1.1.3 0 .4-.1.7-.59 0-1.69-.4-2.29z" fill="#da7c87" stroke-width="none" opacity="1" stroke="none"></path><path id="SvgjsPath12181" d="M105.6 128.4c-3.4.2-6.6.7-10 .5-.3 0-.3.4-.1.4 3.2.7 7 .9 10.2-.2.4-.1.4-.7-.1-.7z" fill="#cc7b48" stroke-width="none" opacity="1" stroke="none"></path></g></g><g id="svga-group-eyes-left-move" transform="matrix(1,0,0,1,0,0)"><g id="svga-group-eyes-left"><g id="svga-group-eyesback-left"><path id="SvgjsPath12029" d="M80.2 74.2c7.5 0 13.5 5.8 13.5 13s-6 13-13.5 13-13.5-5.8-13.5-13 6-13 13.5-13z" fill="#ffffff" stroke-width="none" opacity="1"></path></g><g id="svga-group-eyesiriswrapper-left" transform="matrix(1,0,0,1,0,0)"><g id="svga-group-eyesiriscontrol-left" transform="matrix(1,0,0,1,0,0)"><g id="svga-group-eyesiris-left"><path id="SvgjsPath12106" d="M80.2 81.9c2.9 0 5.3 2.4 5.3 5.3s-2.4 5.3-5.3 5.3-5.3-2.4-5.3-5.3 2.4-5.3 5.3-5.3z" fill="#4e60a3" stroke-width="none" opacity="1"></path><path id="SvgjsPath12107" d="M77.4 88.7c0 1.3.5 2.5 1.3 3.3.5.1 1 .2 1.5.2 2.8 0 5.1-2.3 5.1-5.1 0-1-.3-2-.8-2.8-.7-.3-1.4-.5-2.2-.5-2.8.1-4.9 2.3-4.9 4.9z" fill="#6777b2" stroke-width="none" opacity="1"></path><path id="SvgjsPath12108" d="M80.2 84.5c1.5 0 2.7 1.2 2.7 2.7s-1.2 2.7-2.7 2.7-2.7-1.2-2.7-2.7 1.2-2.7 2.7-2.7z" fill="#000000" stroke-width="none" opacity="1"></path><path id="SvgjsPath12109" d="M79 84.5c.5 0 .9.4.9.9s-.4.9-.9.9-1-.4-1-.9.5-.9 1-.9zm3.1 4.3c.2 0 .4.2.4.4s-.2.4-.4.4-.4-.2-.4-.4.2-.4.4-.4z" fill="#ffffff" stroke-width="none" opacity="1"></path><path id="SvgjsPath12110" d="M80.2 81.6c-3.1 0-5.6 2.5-5.6 5.6s2.5 5.6 5.6 5.6 5.6-2.5 5.6-5.6-2.5-5.6-5.6-5.6zm0 .6c.2 0 .4 0 .7.1h.5-.2c.1 0 .2 0 .2.1.1 0 .1 0 .2.1.2.1.3.2.5.3.1-.1.2-.1.3-.1.1 0 .1.1.2.1.1.1.1.1.1.2.3-.1.6.2.5.5.3-.2.8.3.6.6.2-.1.4 0 .4.2s.1.4-.1.5c.2 0 .5.1.6.3.1.2.1.5-.1.7.2 0 .4.2.5.4s0 .5-.2.6c.2.1.3.3.3.5s-.1.4-.3.5c.2.1.3.3.3.5s-.2.4-.4.4c.3.2.1.8-.2.8.1.1.1.2.1.3-.1.1-.1.3-.2.4s-.2.1-.4.1c.1.4-.3.8-.8.7 0 .2 0 .3-.1.4s-.1.1-.2.1c-.2.1-.3 0-.5-.1 0 .2-.1.4-.3.5-.2.1-.4 0-.6-.2 0 .2-.1.3-.2.4-.2 0-.3.1-.5.1-.1-.1-.3-.2-.3-.3 0 .2-.2.4-.4.4s-.4-.2-.5-.4c-.1.2-.3.3-.6.2H79c-.2-.1-.3-.3-.3-.5-.2.2-.4.2-.6.1s-.3-.3-.3-.5c-.2.1-.5.1-.6 0h-.1c-.2-.2-.2-.4-.1-.7-.2.2-.4.1-.6 0l-.1-.1c-.1-.2-.1-.4 0-.6-.2 0-.4-.1-.6-.2-.4-.7-.7-1.6-.7-2.4.1-2.8 2.4-5 5.2-5zm2 .4s-.1 0 0 0z" fill="#253984" stroke-width="none" opacity="1"></path><path id="SvgjsPath12111" d="M76.5 89.7c.2 0 .3-.1.4-.2.2-.1.3-.2.4-.3v-.1c-.2.1-.3.1-.4.2-.1.2-.3.2-.4.4 0-.1 0 0 0 0zm-1.2-1.5c.1 0 .3 0 .4-.1.2 0 .3-.1.5-.1v-.1c-.2 0-.3 0-.5.1s-.3 0-.4.2c0-.1 0 0 0 0zm.5-2.5c.4.1.8.3 1.2.4 0 0 .1 0 0-.1-.4-.1-.8-.3-1.2-.3 0-.1 0 0 0 0zm.2-.7c.2.2.4.3.7.4 0 0 .1 0 0-.1-.2-.2-.5-.3-.7-.3-.1-.1-.1-.1 0 0zm3.7 6.5c.1-.3.2-.7.2-1 0 0-.1-.1-.1 0-.1.3-.1.7-.1 1zm3.5-4c.3.1.7.1 1.1.1v-.1h-1.1zm.2-.7c.3 0 .7.1 1 0v-.1c-.3 0-.6 0-1 .1zm.2-2.7c-.3.2-.6.5-.9.8 0 0 0 .1 0 0 .3-.2.6-.5.9-.8.1 0 0 0 0 0zm-2.8-1.3c-.1.3-.2.5-.2.8 0 .1.1.1.1 0 .1-.2.1-.5.1-.8zm-2.9.3c.1.2.2.5.3.7h.1c-.1-.2-.3-.4-.4-.7z" fill="#253984" stroke-width="none" opacity="1"></path></g></g></g><g id="svga-group-eyesfront-left"><path id="SvgjsPath12037" d="M80.2 73.7c-7.8 0-14.1 6.1-14.1 13.6s6.3 13.6 14.1 13.6 14.1-6.1 14.1-13.6S88 73.7 80.2 73.7zM67.7 86.5c-.1.2-.2.4-.3.5 0-.1.2-.3.3-.5zm7 5.4c-1.7-.1-7.3-3.6-7.3-4.7.4-.4 1.9-2 3-2.9 1.2-1.1 3-2 3.9-2.2 3.4-.7 8.7 2.2 9.8 3.1.8.8 4.6 3.4 7.1 5-3.9.5-15.1 1.8-16.5 1.7z" fill="#ebaa82" stroke-width="none" opacity="1" stroke="none"></path><path id="SvgjsPath12038" d="M91.9 88.8c-.4-1-.9-2-1.4-3-.7-1-1.4-2-2.2-3-.8-.9-1.7-1.9-2.6-2.7-.5-.4-1-.8-1.6-1.1-.6-.3-1.2-.5-1.8-.7-1.3-.2-2.6-.2-3.8-.1-2.5.3-5 1.3-6.8 3.1-.4.4-.8.9-1.2 1.4-.4.5-.8 1-1.1 1.4-.4.5-.7 1-1.1 1.5-.2.2-.3.5-.5.8-.2.3-.3.5-.4.8l-.5.8.4-.4s0 .1.1.1c.2.3.4.5.6.7.9.8 1.9 1.5 3 2.1.5.3 1.1.6 1.6.9.6.3 1.1.5 1.7.7.2 0 .3.1.5.1h.5c.3 0 .6 0 .9-.1.6-.1 1.2-.1 1.8-.2 2.4-.2 4.8-.5 7.2-.8 1.9-.3 3.9-.5 5.8-.8l.6.4.8.5.4.2.2.1.1.1s.1.1.2.1c-.5-1-1-1.9-1.4-2.9zm-14 2.7c-.6.1-1.2.1-1.8.2-.6 0-1.2.1-1.7 0-.6-.1-1.1-.4-1.6-.6-.5-.3-1.1-.5-1.6-.8-1-.6-2.1-1.2-2.9-2l-.6-.6c-.1-.1-.1-.1-.1-.2 1.7-1.8 3.4-3.6 5.7-4.6l.9-.3c.3-.1.6-.1.9-.1.6 0 1.2.1 1.8.2 1.2.2 2.4.6 3.6 1.1 1.2.5 2.3 1 3.3 1.7 1 .8 2.1 1.5 3.1 2.2 1.1.7 2.1 1.4 3.2 2.1l.9.6c-4.5.2-8.8.7-13.1 1.1zm15.1-.1-.2-.1-.4-.3-.8-.6-1.6-1.1-3-2.1c-1-.8-2.1-1.5-3-2.3-.5-.4-1.1-.8-1.6-1.1s-1.1-.6-1.7-.9c-1.2-.5-2.4-.9-3.7-1.1-.7-.1-1.3-.1-2 0-.3.1-.7.1-1 .2-.3.1-.6.2-.9.4-1.2.6-2.2 1.4-3.1 2.2-.5.4-.9.9-1.4 1.3l-.5.5c.1-.2.2-.4.4-.5.4-.5.8-1 1.2-1.4.4-.5.8-.9 1.2-1.4.4-.4.8-.9 1.2-1.3 1.7-1.6 4.1-2.5 6.4-2.7 1.2-.1 2.4-.1 3.5.1 1.1.3 2.1.8 3 1.6 1.8 1.5 3.4 3.4 5 5.2.5.9 1 1.8 1.6 2.7s1.1 1.8 1.6 2.8c-.1 0-.1 0-.2-.1z" fill="#000000" stroke-width="none" opacity="1" stroke="none"></path></g></g></g><g id="svga-group-eyes-right-move" transform="matrix(1,0,0,1,0,0)"><g id="svga-group-eyes-right"><g id="svga-group-eyesback-right"><path id="SvgjsPath12030" d="M119.8 74.2c7.5 0 13.5 5.8 13.5 13s-6 13-13.5 13-13.5-5.8-13.5-13 6-13 13.5-13z" fill="#ffffff" stroke-width="none" opacity="1"></path></g><g id="svga-group-eyesiriswrapper-right" transform="matrix(1,0,0,1,0,0)"><g id="svga-group-eyesiriscontrol-right" transform="matrix(1,0,0,1,0,0)"><g id="svga-group-eyesiris-right"><path id="SvgjsPath12112" d="M119.8 82.5c2.6 0 4.7 2.1 4.7 4.7s-2.1 4.7-4.7 4.7-4.7-2.1-4.7-4.7 2.1-4.7 4.7-4.7z" fill="#4e60a3" stroke-width="none" opacity="1"></path><path id="SvgjsPath12113" d="M117.3 88.5c0 1.1.4 2.2 1.2 2.9.4.1.8.2 1.3.2 2.4 0 4.4-2 4.4-4.4 0-.9-.3-1.8-.7-2.4-.6-.3-1.2-.5-1.9-.5-2.4 0-4.3 1.9-4.3 4.2z" fill="#6777b2" stroke-width="none" opacity="1"></path><path id="SvgjsPath12114" d="M119.8 84.8c1.3 0 2.4 1.1 2.4 2.4s-1.1 2.4-2.4 2.4-2.4-1.1-2.4-2.4 1.1-2.4 2.4-2.4z" fill="#000000" stroke-width="none" opacity="1"></path><path id="SvgjsPath12115" d="M118.7 84.8c.5 0 .8.4.8.8s-.4.8-.8.8-.8-.4-.8-.8.4-.8.8-.8zm2.8 3.8c.2 0 .3.1.3.3s-.1.3-.3.3-.3-.1-.3-.3.1-.3.3-.3z" fill="#ffffff" stroke-width="none" opacity="1"></path><path id="SvgjsPath12116" d="M119.8 82.3c-2.7 0-4.9 2.2-4.9 4.9s2.2 4.9 4.9 4.9 4.9-2.2 4.9-4.9-2.2-4.9-4.9-4.9zm.9.6zm-.9-.1c.2 0 .4 0 .6.1h.4c.1 0 .2.1.3.1.1.1.3.1.4.2.1-.1.1-.1.2-.1s.2.1.3.1c0 0 .1.1.1.2.2-.1.5.2.5.4.3-.1.7.2.6.5.1 0 .3 0 .4.2.1.1 0 .3-.1.4.2 0 .4.1.5.3.1.2.1.4-.1.6.2 0 .3.1.4.2 0 .1.1.1.1.2 0 .2-.1.3-.2.4.2.1.2.2.3.4v.1c0 .2-.1.3-.3.4.1.1.2.2.2.3v.2c-.1.1-.2.3-.3.3.2.2.1.7-.2.7.1.1.1.2.1.2-.1.2-.2.3-.2.4-.1.1-.2.1-.3.1.1.4-.3.7-.7.7 0 .1 0 .2-.1.3-.1.1-.2.1-.2.2-.1 0-.3 0-.4-.1 0 .2-.1.4-.3.4-.2.1-.4 0-.5-.2 0 .1-.1.3-.2.4-.1 0-.3.1-.4.1-.1-.1-.2-.1-.3-.3 0 .2-.2.3-.4.3s-.4-.1-.4-.3c-.1.2-.3.3-.5.2-.2-.1-.3-.2-.3-.4-.1.1-.4.2-.5.1-.2-.1-.3-.3-.3-.4-.2.1-.4.1-.6 0s-.2-.4-.1-.6c-.2.1-.4.1-.6 0-.1-.2-.2-.4 0-.6-.2 0-.4-.1-.5-.2s-.1-.2-.2-.3c-.2-.6-.4-1.2-.4-1.8-.2-2.4 1.7-4.4 4.2-4.4zm-2.5 8.1zm-1.2-1.2zm.6.6c0 .1 0 .1 0 0 0 .1 0 .1 0 0z" fill="#253984" stroke-width="none" opacity="1"></path><path id="SvgjsPath12117" d="M116.6 89.4c.1 0 .2-.1.4-.2.1-.1.3-.1.4-.2v-.1c-.1.1-.3.1-.4.2s-.3.1-.4.3c-.1-.1 0 0 0 0zm-1.1-1.4c.1 0 .2 0 .4-.1.1 0 .3-.1.4-.1v-.1c-.1 0-.3 0-.4.1s-.3.1-.4.2zm.5-2.1c.3.1.7.2 1 .3 0 0 .1 0 0 0-.3-.2-.7-.3-1-.3-.1-.1-.1 0 0 0zm.1-.7c.2.1.4.3.6.4 0 0 .1 0 0-.1l-.6-.3zm3.3 5.8c.1-.3.2-.6.2-.9 0 0-.1-.1-.1 0-.1.2-.1.6-.1.9-.1 0 0 0 0 0zm3-3.5c.3.1.6.1.9.1-.2-.1-.6-.1-.9-.1zm.2-.6h.8v-.1c-.2 0-.5 0-.8.1 0-.1 0 0 0 0zm.2-2.4c-.3.2-.6.4-.8.7.2-.2.5-.4.8-.7zm-2.5-1.1c-.1.2-.1.5-.1.7h.1v-.7zm-2.5.2.3.6h.1c-.2-.2-.3-.4-.4-.6z" fill="#253984" stroke-width="none" opacity="1"></path></g></g></g><g id="svga-group-eyesfront-right"><path id="SvgjsPath12039" d="M119.8 73.7c-7.8 0-14.1 6.1-14.1 13.6s6.3 13.6 14.1 13.6 14.1-6.1 14.1-13.6-6.3-13.6-14.1-13.6zm3.8 17.2c-1.5.2-12.1-1.1-12.1-1.1s.3-.2.7-.6c.3-.2.6-.3.8-.4 1.3-.8 9.5-6.2 10.2-6.5s3.4-.6 4.7.1c.5.3.9.6 1.2 1 .3.7.5 1.6.6 2.8 0 .8-4.6 4.4-6.1 4.7z" fill="#ebaa82" stroke-width="none" opacity="1" stroke="none"></path><path id="SvgjsPath12042" d="M130.3 84.6c-.1-.6-.4-1.2-.7-1.7-.3-.5-.7-1-1.1-1.4-.4-.4-.9-.9-1.4-1.2-1-.7-2.2-1.1-3.4-1.3-1.2-.2-2.4-.3-3.6-.2s-2.4.2-3.6.5c-.2 0-.3.1-.4.1-.1 0-.2.1-.2.1l-.2.1c-.3.1-.6.2-.9.4-.6.3-1.1.6-1.6 1-1.9 1.6-3.2 3.6-4.4 5.7-.3.9-.6 1.9-.8 2.8s-.5 1.8-.7 2.6c1-.5 2-1 3.1-1.6l1.2-.6c1.8.3 3.6.6 5.4.8 1.8.2 3.7.4 5.6.5h.7c.2 0 .5 0 .8-.1.5-.2.9-.4 1.3-.7.8-.5 1.6-1.1 2.3-1.6.4-.3.7-.6 1-.9.3-.3.7-.7.9-1.1 0-.1.1-.1.1-.2l.2-.2c.4-.5.5-1.2.4-1.8zm-23 7.3c.3-.9.7-1.8 1-2.7.3-.8.7-1.7 1-2.5 1.3-1.9 2.7-3.8 4.5-5.2.4-.4.9-.7 1.4-.9.2-.1.5-.2.8-.3l.2-.1c.1 0 .1 0 .2-.1.1 0 .3-.1.4-.1 1.1-.3 2.3-.4 3.4-.5 1.2-.1 2.3 0 3.4.1 1.1.2 2.2.5 3.2 1.1.5.3.9.6 1.3 1.1.4.4.8.8 1.1 1.3.3.5.6 1 .7 1.5.1.4 0 .8-.1 1.2 0-.4 0-.9-.2-1.3-.2-.6-.5-1.1-.9-1.6s-.9-.8-1.5-.9c-.6-.2-1.2-.2-1.8-.2-.6 0-1.2 0-1.8.1-.3.1-.6.1-.9.3-.3.1-.5.3-.8.4l-3 1.8c-2 1.3-3.9 2.6-5.8 3.9-1 .6-1.9 1.2-2.9 1.8-.8.6-1.8 1.2-2.9 1.8zm22.2-5.6c0 .1-.1.2-.1.3-.6.7-1.3 1.3-2 1.9s-1.5 1.1-2.3 1.6l-1.2.6c-.2.1-.4.1-.6.1h-.7c-3.6-.2-7.3-.6-11-.9.7-.3 1.3-.7 1.9-1 2-1.2 4-2.5 5.9-3.7 1-.6 1.9-1.3 2.9-1.9.2-.2.5-.3.7-.5.2-.1.5-.2.7-.3.6-.1 1.1-.2 1.7-.2s1.1 0 1.7.2c.5.1 1 .4 1.4.8.2.2.3.3.4.5 0 .1.1.2.1.3.1.4.2.9.3 1.3 0 .2.1.5.1.7l.1.2c0-.1 0-.1 0 0z" fill="#000000" stroke-width="none" opacity="1" stroke="none"></path></g></g></g><g id="svga-group-facehighlight-single"></g><g id="svga-group-eyebrows-left-move" transform="matrix(1,0,0,1,0,0)"><g id="svga-group-eyebrows-left-rotate" transform="matrix(1,1.7453292519943295e-9,-1.7453292519943295e-9,1,1.221730343559102e-7,-1.4014779026183533e-7)"><g id="svga-group-eyebrows-left"><path id="SvgjsPath11951" d="M91.61 68.78s.68 5.89.07 6.92c-.62 1.03-6.92-2.39-9.93-4.06-3.02-1.68-5.83-2.31-7.18-1.33-1.35.98-5.84 5.47-5.84 5.47s4.12-10.89 4.61-11.59c.49-.7 6.94 1.5 6.94 1.5s1.97 1.59 3.08 2.82l-1.07-2.59s7.5 2.36 7.93 2.92c.41.57 1.14 2.84 1.14 2.84l.25-2.9z" fill="#2a232b" stroke-width="none" opacity="1"></path><path id="SvgjsPath11952" d="M91.6 68.75c-.01.02 0 .04-.01.06-.01-.01-.02-.01-.02-.01v.02l.01.04.01.04c-.05.41-.1.82-.16 1.26-.05.33-.09.68-.14 1.02-.11-.35-.22-.7-.34-1.05-.08-.25-.18-.5-.28-.73-.05-.12-.1-.25-.17-.37-.07-.13-.1-.23-.24-.38-.13-.12-.23-.16-.34-.22-.11-.06-.22-.11-.32-.17-.22-.1-.44-.2-.65-.29-.44-.19-.87-.35-1.31-.53-1.76-.65-3.52-1.26-5.29-1.85l-.56-.19.25.62.48 1.19c-.16-.14-.32-.3-.47-.44-.52-.47-1.05-.92-1.59-1.36l-.05-.04-.05-.02a54.25 54.25 0 0 0-4.63-1.34c-.39-.08-.78-.17-1.19-.22a6 6 0 0 0-.61-.06c-.1 0-.21 0-.32.02-.12.02-.23.03-.39.15-.1.09-.11.14-.15.2l-.07.16-.13.29-.24.58-.46 1.17c-.61 1.56-1.2 3.14-1.78 4.71l-1.73 4.73-.19.53.37-.37c.95-.96 1.91-1.91 2.88-2.84.98-.91 1.96-1.87 3.01-2.63.53-.34 1.19-.4 1.83-.36.65.05 1.3.2 1.95.41 1.29.42 2.52 1.07 3.75 1.78 1.24.7 2.49 1.36 3.76 1.98 1.27.62 2.54 1.22 3.88 1.65.33.1.67.2 1.03.24.18.02.36.03.55 0 .1-.02.2-.06.29-.13.04-.04.09-.11.12-.15.02-.04.05-.1.06-.15.13-.4.15-.78.17-1.16.01-.38.01-.76 0-1.15-.02-.77-.1-1.53-.17-2.29l-.12-1.14-.07-.57-.04-.29-.02-.14-.01-.07-.01-.04v-.02c-.04-.05-.07-.08-.08-.08zm.02.61.04.56.07 1.14c.04.75.05 1.51.06 2.26 0 .38-.01.75-.04 1.11-.03.36-.06.74-.17 1.03-.03.08-.06.13-.09.15-.04.03-.08.05-.15.06-.13.02-.28.01-.44-.01-.31-.06-.64-.15-.95-.26-1.28-.45-2.54-1.08-3.79-1.7-1.25-.63-2.49-1.31-3.73-1.98-.62-.34-1.25-.68-1.9-.97-.65-.28-1.3-.53-1.98-.73-.67-.19-1.35-.32-2.03-.34-.67-.01-1.38.08-1.96.49-.55.42-1.02.87-1.52 1.33l-1.47 1.39c-.84.8-1.69 1.62-2.52 2.43l1.65-4.12 1.9-4.63.49-1.14.25-.56.12-.28.07-.12c.01-.03.05-.08.02-.04 0 0 .08-.03.15-.04.08 0 .16-.01.25 0 .17.01.37.03.56.05.38.06.76.14 1.14.24 1.51.37 3.01.86 4.51 1.35.51.42 1.02.86 1.52 1.3.51.46 1.02.93 1.48 1.43L84.3 70l-.67-1.6-.83-1.99c1.59.48 3.17.98 4.74 1.52.44.15.88.3 1.31.46.22.08.44.17.64.25.11.04.21.1.31.14.1.04.21.1.27.16.01.01 0 .01.01.01l.03.04.04.06.09.16c.06.11.11.22.16.34.1.24.2.47.3.71.19.48.37.96.54 1.45l.17.48.03-.49c.03-.46.06-.91.08-1.39.02-.41.04-.84.08-1.27v.06l.02.26z" fill="#1b141c" stroke-width="none" opacity="1"></path></g></g></g><g id="svga-group-eyebrows-right-move" transform="matrix(1,0,0,1,0,0)"><g id="svga-group-eyebrows-right-rotate" transform="matrix(1,1.7453292519943295e-9,-1.7453292519943295e-9,1,1.258779320778558e-7,-2.1046926690360124e-7)"><g id="svga-group-eyebrows-right"><path id="SvgjsPath11953" d="M108.81 71.46s-.04 5.1.68 5.96c.72.87 6.57-2.29 9.37-3.83 2.8-1.55 5.5-2.19 6.94-1.39s6.36 4.52 6.36 4.52-5.25-9.24-5.8-9.83c-.56-.59-6.69 1.52-6.69 1.52s-1.78 1.44-2.73 2.53l.77-2.27s-7.15 2.28-7.51 2.77c-.35.49-.82 2.48-.82 2.48l-.57-2.46z" fill="#2a232b" stroke-width="none" opacity="1"></path><path id="SvgjsPath11954" d="m132.25 76.67-2.22-4.02c-.74-1.35-1.49-2.67-2.26-4l-.59-.99-.31-.49-.16-.24-.09-.12c-.04-.04-.06-.1-.17-.16-.17-.1-.29-.1-.4-.12a1.71 1.71 0 0 0-.32 0c-.21.01-.4.04-.6.06-.38.06-.77.15-1.14.23-1.5.37-2.97.81-4.43 1.3l-.06.02-.04.03c-.48.4-.96.8-1.42 1.23l-.42.39.35-1.04.18-.53-.54.18c-1.69.57-3.36 1.14-5.03 1.77-.42.16-.83.32-1.24.5-.2.09-.41.18-.62.28-.1.05-.21.1-.3.15-.11.06-.2.11-.31.2-.11.14-.14.22-.19.34-.04.1-.08.22-.13.32-.07.22-.14.43-.2.64-.08.3-.15.61-.23.91-.08-.3-.16-.59-.25-.88-.11-.36-.21-.72-.3-1.08v-.08s-.01.01-.02.01c-.01-.02-.01-.03-.02-.06-.01 0-.03.03-.03.04v.11l-.01.12-.01.25-.01.49v.99c.01.66.03 1.31.09 1.97.03.32.07.66.13.99.07.33.12.66.29.99.02.05.05.08.08.12.02.04.08.09.14.12.11.07.21.09.3.1.2.03.37 0 .55-.01.34-.05.67-.14.99-.24 1.27-.42 2.47-.97 3.64-1.56 1.18-.57 2.35-1.19 3.49-1.83 1.14-.66 2.29-1.25 3.51-1.66.61-.2 1.24-.35 1.88-.42.63-.06 1.29-.03 1.85.25 1.13.62 2.2 1.41 3.26 2.16 1.06.77 2.11 1.55 3.15 2.36l.41.31-.22-.4zm-4.8-3.5c-.54-.38-1.07-.75-1.65-1.1-.61-.33-1.32-.39-1.99-.36-.68.04-1.34.18-1.97.36-.64.19-1.26.42-1.87.69-.61.27-1.2.59-1.77.9-1.15.62-2.31 1.24-3.47 1.83-1.17.58-2.34 1.17-3.56 1.59-.3.1-.61.2-.91.26-.15.03-.31.04-.44.03-.06 0-.12-.02-.15-.05a.324.324 0 0 1-.1-.12c-.14-.25-.22-.56-.29-.88-.07-.31-.12-.63-.15-.96-.08-.65-.15-1.3-.19-1.95l-.06-.98-.03-.49-.01-.25v-.05c.08.37.16.74.22 1.09.07.41.15.8.23 1.2l.09.42.11-.43c.11-.43.24-.85.38-1.27.07-.21.14-.42.22-.62.04-.1.08-.2.13-.3l.07-.14.04-.06.02-.03.01-.01c.05-.04.16-.1.25-.15.09-.05.2-.09.3-.14.2-.09.41-.16.61-.24.42-.15.83-.3 1.25-.45 1.49-.51 3-.99 4.5-1.46l-.6 1.73-.48 1.4 1-1.1c.4-.45.85-.87 1.31-1.28.44-.4.9-.8 1.35-1.17 1.43-.48 2.86-.94 4.3-1.31.37-.09.73-.18 1.1-.23.18-.03.36-.06.54-.07.08-.01.18-.01.25 0 .07 0 .15.02.15.02-.02-.03.01.01.03.04l.08.11.15.23.31.47.6.97 2.37 3.93 2.08 3.49c-.91-.68-1.83-1.35-2.75-2l-1.61-1.11z" fill="#1b141c" stroke-width="none" opacity="1"></path></g></g></g><g id="svga-group-beardwrap"><g id="svga-group-beard-single-move" transform="matrix(1,0,0,1,0,0)"><g id="svga-group-beard-single"></g></g></g><g id="svga-group-mustache-single-move" transform="matrix(1,0,0,1,0,0)"><g id="svga-group-mustache-single"><path id="SvgjsPath12194" d="M130.2 125.3s-6.6-10.9-29-11.8c-18.3-.7-25.8 4.9-31.4 11.3 0 0 15.2 5.2 29.9-2 0-.1 12.5 7.8 30.5 2.5z" fill="#2a232b" stroke-width="none" opacity="1"></path><path id="SvgjsPath12195" d="M127.5 122c-.5-.5-1.1-.9-1.6-1.4-.6-.4-1.1-.8-1.7-1.2-2.3-1.6-4.9-2.8-7.6-3.7-1.3-.5-2.7-.8-4.1-1.2-1.4-.3-2.8-.6-4.1-.8-2.8-.4-5.6-.6-8.4-.7-5.6 0-11.3.5-16.6 2.2-2.7.9-5.2 2.1-7.6 3.7-2.3 1.6-4.4 3.5-6.3 5.6l-.3.3.5.2c2.5.8 5 1.3 7.6 1.6 2.6.3 5.2.4 7.7.3 1.3 0 2.6-.2 3.9-.4 1.3-.2 2.6-.4 3.8-.8 2.4-.6 4.8-1.5 7.1-2.5 2.3 1.3 4.7 2.2 7.2 2.8 2.6.7 5.2 1.1 7.8 1.3 2.6.1 5.3.1 7.9-.3 1.3-.1 2.6-.4 3.9-.7 1.3-.3 2.6-.7 3.8-1.1-.9-1.2-1.9-2.2-2.9-3.2zm-1.2 4.1c-1.3.2-2.6.4-3.9.5-2.6.3-5.2.2-7.8 0-2.6-.2-5.1-.7-7.6-1.4s-4.9-1.6-7.1-2.9l-.2-.1-.3.1c-2.3 1-4.6 2-7.1 2.6-1.2.4-2.5.5-3.7.8-1.2.2-2.5.3-3.8.4-2.5.2-5.1.1-7.6-.1-2.3-.2-4.7-.7-7-1.3 1.7-2 3.6-3.8 5.7-5.3 2.3-1.6 4.8-2.8 7.4-3.7 5.3-1.7 11-2 16.5-1.8 2.8.1 5.5.3 8.3.7 1.4.2 2.7.5 4.1.8 1.3.4 2.7.7 4 1.1 2.6.9 5.2 1.9 7.6 3.4 2.3 1.4 4.6 3.2 6.2 5.4-1.2.2-2.4.5-3.7.8zm-32.6-6.2c-.8.6-1.5 1.2-2.3 1.7-.4.3-.9.6-1.3.9.4-.8.9-1.7 1.3-2.6.6-1.2 1.2-2.5 1.8-3.8l.1-.3-.3.2c-2.1 1.3-4.4 2.4-6.6 3.6-1.8 1-3.7 2-5.5 2.9.5-.9 1-1.7 1.4-2.6l.6-1.1-1 .6c-2.5 1.4-4.9 2.8-7.3 4.4v.1c2.2-1 4.4-2.1 6.6-3.3-.5.9-1 1.7-1.5 2.6l-.6 1 1.1-.5c1.2-.5 2.3-1.1 3.4-1.7 1.1-.6 2.2-1.2 3.2-1.9 2.1-1.2 4-2.5 6.1-3.8-.2.5-.4 1-.7 1.5-.3.6-.6 1.2-1 1.8l-2.1 3.6-.7 1.1 1.1-.7c1.7-1 3.2-2.2 4.7-3.4 1.5-1.2 2.9-2.5 4.3-3.9l-.1-.1-4.7 3.7zm30.5 2.2.7 2.4c-1.1-.3-2-.8-3-1.3-1.1-.6-2.1-1.2-3.1-1.9s-2-1.3-3-2.1c-1-.7-2-1.4-2.9-2.2l-.9-.7.3 1.1c.4 1.4 1.1 2.7 1.9 3.9.7 1.1 1.4 2 2.2 3-1.4-.6-2.8-1.4-4-2.3-1.4-1-2.8-2.1-4-3.3l-.6-.6.1.8c.1 1.3.3 2.7.4 4-1.5-1.4-2.9-2.9-4.4-4.4l-.1.1c.7 1 1.4 1.9 2.2 2.8.8.9 1.6 1.8 2.4 2.6l.6.5-.1-.8c-.1-1.3-.3-2.7-.4-4.1 1.2.9 2.4 1.8 3.7 2.6 1.5.9 3 1.8 4.6 2.5l.5.2-.3-.4c-.8-1.1-1.6-2.3-2.3-3.6-.5-.9-.9-1.8-1.3-2.7 1.6 1.3 3.3 2.5 5.1 3.6 1.1.7 2.1 1.2 3.3 1.8 1.1.5 2.3 1 3.5 1.2l.3.1-.1-.3-1.3-2.5z" fill="#1b141c" stroke-width="none" opacity="1"></path></g></g><g id="svga-group-nose-single-move" transform="matrix(1,0,0,1,0,0)"><g id="svga-group-nose-single"><path id="SvgjsPath12165" d="M99.1 116.5c.67.12 4.53-3.31 4.53-3.31s2.06 1.59 3.62 1.43c1.56-.16 2.44-1.08 3-1.96.56-.88-.89-3.1-1.78-4.41-.9-1.31-3.54-5.22-4.09-7.02-1.07-3.45-3-4.76-4.92-4.64-1.92.12-4.04 1.52-4.6 3.44-.56 1.92-.72 4.28-1.8 5.76s-3.32 4-3.56 4.72c-.24.72-.11 2.8 1.24 3.56 1.73.97 4.3-.51 4.3-.51s3.18 2.78 4.06 2.94z" fill="#ebaa82" stroke-width="none" opacity="1" stroke="none"></path><path id="SvgjsPath12166" d="M110.28 110.87c-.42-1.01-1.08-1.86-1.81-2.61.57.88 1.08 1.8 1.39 2.76.15.48.24.97.16 1.42-.05.23-.12.41-.26.6-.13.2-.29.39-.47.54-.69.66-1.7.91-2.68.78-.49-.06-.99-.2-1.46-.39-.45-.16-.86-.39-1.29-.62.38-.56.72-1.15 1.02-1.76-.97.91-1.89 1.83-2.87 2.64-.49.4-.98.8-1.51 1.09-.51.3-1.07.55-1.51.52-.12.01-.21-.02-.31-.04-.09-.05-.17-.06-.3-.16-.24-.15-.49-.36-.74-.55-.5-.39-.99-.82-1.49-1.23-.99-.84-1.99-1.69-3.07-2.48a21.8 21.8 0 0 0 1.68 2.24c-.5.22-1.01.41-1.53.52-.64.12-1.3.15-1.84-.1-1.09-.53-1.72-1.83-1.54-2.94.05-.28.13-.5.3-.74.17-.26.36-.53.56-.79.4-.52.82-1.02 1.26-1.52l.66-.74c.26-.28.46-.56.67-.84.41-.57.77-1.18 1.07-1.83.3-.65.48-1.4.59-2.06.12-.68.22-1.35.3-2.02.15-1.35.27-2.69.31-4.04.1-2.7.03-5.42-.51-8.07.05 2.69-.14 5.35-.4 8-.15 1.32-.29 2.65-.5 3.96-.1.66-.2 1.31-.32 1.96-.12.66-.27 1.22-.54 1.79a9.34 9.34 0 0 1-.94 1.65c-.18.26-.37.53-.57.74-.23.26-.45.51-.66.78-.43.53-.85 1.07-1.24 1.63-.2.28-.39.57-.57.88-.2.33-.34.76-.37 1.14-.13 1.57.85 3.05 2.25 3.55.73.23 1.47.11 2.12-.11.54-.19 1.03-.46 1.49-.77.24.28.47.57.71.84.44.5.91.96 1.41 1.42.25.23.51.44.82.65.13.1.36.22.57.3.22.06.44.12.66.11.88 0 1.55-.38 2.14-.76.58-.41 1.1-.86 1.55-1.37.44-.48.84-.99 1.21-1.53.75.66 1.64 1.25 2.68 1.45.54.12 1.11.12 1.66 0 .55-.14 1.07-.41 1.49-.8.21-.19.39-.42.54-.65.17-.23.29-.54.32-.84.06-.55-.08-1.1-.29-1.6z" fill="#bd6630" stroke-width="none" opacity="1" stroke="none"></path></g></g><g id="svga-group-hair-front"><path id="SvgjsPath12206" d="M62.3 84.7s1.5-2.7 1.7-7.3 0-10.9.2-14.2c.2-3.3 1-8.2 1.5-10 .4-1.8.6-3.5 1.8-5.3 1.2-1.8 2.4-3.6 5.2-4.3 2.8-.7 7.6-3 8.7-4.3 0 0 3-.6 3.7-1 0 0 5.3 2.6 7.2 2.8 1.9.2 8.2.5 12.3-.7s10.1-2.6 12.4-2.2 12.2-1.1 16.6 12.7c0 0 1.1 4.3 1.2 10.4.1 6.1.3 10.1.8 11.9.4 1.8 1.2 5.6 1.2 7.3s.6 2.5.6 2.5 1.7-3.8 2.2-5.8 1.9-11.6 2.1-13.1c.2-1.5.6-6.4.9-8.5.3-2 0-9.5 0-9.5s.1-4.7-.6-6.1c-.7-1.3-1.4-3.5-2.9-4.8 0 0 .1-1.6-.1-2.7s-2.1-5.3-8.2-10.6-13.3-9.4-21.6-9.4c0 0 2.9-.4 4.8-.6 0 0-5.5-.7-8.1-.3l4.3-.6s-7.2-1.4-12.3.1c0 0 .7-1.2 4.2-2.5 0 0-7.8-2.1-15.4 3.1 0 0-5.9-.3-11.7 6.8 0 0-3.7 1.1-4.7 1.8s-6.2 3.1-6.9 11.4c0 0-5 .6-5.5 11l.5 8.7s-1.8 3.6-1.8 7.3 1 6 1.1 7.8c.1 1.8.7 5.2.7 5.2s1.8 4.2 2.1 5.9c.2 1.9 1.8 7.1 1.8 7.1z" fill="#2a232b" stroke-width="none" opacity="1" stroke="none"></path><path id="SvgjsPath12207" d="M143 46.5c.1-1 .1-2 0-3s-.3-2-.6-3-.7-1.9-1.1-2.8c-.4-.8-1-1.6-1.6-2.4.2-1.8-.4-3.5-1.2-5-.8-1.5-1.9-2.9-3.1-4.2-2.3-2.6-5-4.8-7.7-6.9-2.8-2-5.8-3.8-9.1-4.9-1.6-.6-3.3-1-5-1.2-1.7-.2-3.4-.3-5.1-.1 3.4-.3 6.8.5 10 1.7s6.1 3 8.8 5.1c1.4 1 2.6 2.1 3.9 3.3 1.3 1.1 2.5 2.3 3.6 3.6 1.1 1.3 2.1 2.6 2.9 4.1.8 1.4 1.3 3.1 1.1 4.6v.2l.2.2c.6.7 1.1 1.5 1.6 2.3.4.8.8 1.7 1.1 2.6s.5 1.8.5 2.8c.1 1 .1 1.9 0 2.9.2 3.1.2 6.2.1 9.3-.1 3.1-.7 6.1-1.1 9.2-.4 3.1-.8 6.2-1.3 9.2-.2 1.5-.5 3.1-.9 4.5-.5 1.4-1.1 2.9-1.5 4.4.5-1.5 1.1-2.9 1.7-4.3.5-1.5.8-3 1.1-4.6.6-3.1 1.1-6.1 1.5-9.2l.7-4.6c.3-1.5.4-3.1.5-4.7.2-2.9.2-6 0-9.1zm-7.5 1.3c.1-.8.4-1.6.6-2.4.2-.8.5-1.6.8-2.4l.8-2.4.4-1.2.2-.6.1-.3.1-.2v-.1.1-.1c-.1 0 0 0-.1.1l-.1.1-.2.3-.3.5-.6 1.1c-.4.8-.8 1.5-1.1 2.3-.7 1.6-1.3 3.2-1.6 4.9-.2 1.2-.2 2.4-.2 3.6-.1-.5-.3-1-.4-1.5-.5-1.8-1.2-3.6-2-5.3s-1.7-3.4-3-4.9c-2.4-3-5.9-4.9-9.4-6.3-3.5-1.2-6.3-3.8-8.2-6.9-.9-1.5-1.7-3.3-1.8-5.1-.1-.9.1-1.8.4-2.6.4-.8.9-1.5 1.7-2 1.4-1.1 3.3-1.6 5.1-1.5 1.8.1 3.7.7 5.3 1.6-1.6-1-3.4-1.6-5.3-1.8-1.9-.2-3.9.2-5.4 1.4-.8.5-1.5 1.3-1.9 2.2-.4.9-.6 1.9-.5 2.9.1 2 .8 3.8 1.8 5.4 1.9 3.3 5 6 8.5 7.3 3.4 1.4 6.7 3.3 8.9 6.1 1.8 2.2 3 4.8 4 7.5-1.3-3.2-3.6-6.2-6.7-8-1.8-1.1-3.9-1.7-6-1.8h-.4c-3.2-1-6.6-1.6-10-1.7h-2.5l-.8-.1c-.5 0-1.1-.2-1.6-.3-.5-.2-1-.3-1.5-.6-2-.9-3.7-2.3-4.8-4.1-1.2-1.8-2-3.9-2.3-6-.3-2.2-.2-4.4.5-6.4s2.3-3.7 4.1-4.9c1.9-1.1 4.1-1.8 6.3-2.1-2.2.1-4.5.6-6.5 1.7s-3.7 2.8-4.6 5c-.2.5-.4 1.1-.5 1.7-.1.6-.2 1.1-.2 1.7 0 .6-.1 1.1-.1 1.7 0 .6.1 1.1.1 1.7.3 2.3 1.1 4.5 2.3 6.5 1.3 1.9 3.2 3.5 5.3 4.4 2.1 1 4.6 1.1 6.8.9 2.2-.1 4.4.1 6.6.5.6.1 1.3.2 1.9.3-1.5 0-3 0-4.4.2-4.2.5-8.2 2-12.2 2.6-2 .3-4.1.4-6.1.2-2.1-.1-4.1-.6-5.9-1.4-1.8-.8-3.5-2-4.8-3.6-1.3-1.5-2.2-3.4-2.8-5.3s-.8-4-.7-6c.1-2 .3-4.1 1.1-6 1.6-3.7 4.9-6.6 8.6-8.2 3.4-1.5 7.3-2 10.9-1.4-.5.2-1 .3-1.5.6-.4.2-.8.4-1.2.7-.4.3-.7.6-.9 1.1l-.1.4.4-.1c1-.4 2.1-.6 3.1-.7 1.1-.1 2.1-.2 3.2-.2s2.2.1 3.2.1c1.1.1 2.2.2 3.2.4-1.1-.2-2.1-.4-3.2-.5s-2.2-.2-3.2-.2c-1.1 0-2.2 0-3.3.1-.9.1-1.8.2-2.7.5.2-.2.3-.4.5-.5.3-.2.7-.4 1.1-.6.8-.3 1.6-.6 2.5-.8l1.1-.2-1.1-.3c-4-1-8.5-.6-12.4 1-1.3.5-2.6 1.2-3.7 2.1-1.5.2-2.9.6-4.3 1.2-1.7.7-3.3 1.7-4.7 2.8-.4.3-.7.6-1.1.9-.3.3-.6.7-.9 1-.3.4-.5.8-.8 1.1-3.1.6-6.1 2.2-8.3 4.6-1.3 1.5-2.1 3.3-2.7 5.2-.3 1.2-.5 2.4-.5 3.6-1.5.5-2.8 1.6-3.6 3-.9 1.5-1.3 3.3-1.5 5-.4 3.3-.4 6.7 0 10.1v.2c-.9 2.7-1.6 5.5-1.8 8.4V61c.1.7.2 1.5.4 2.2.3 1.4.5 2.8.7 4.2.2 1.4.4 2.8.8 4.2.2.7.4 1.4.7 2.1.3.6.5 1.3.8 2 .9 2.7 1.7 5.4 2.4 8.2-.5-2.8-1-5.6-1.9-8.4-.2-.7-.4-1.4-.7-2.1-.3-.7-.5-1.3-.6-2-.3-1.4-.4-2.8-.6-4.2-.2-1.4-.4-2.8-.7-4.2-.2-.7-.3-1.4-.3-2v-2c.1-2.2.6-4.4 1.2-6.5.7 2.9 2.2 8.2 5.7 12.4 0 1.1.1 2.2 0 3.4 0 1.9-.1 3.8-.1 5.6 0 1.9-.1 3.8-.3 5.6-.1.9-.1 1.9-.3 2.8-.2.9-.2 1.9-.7 2.7.5-.8.7-1.8.9-2.7s.4-1.9.5-2.8c.2-1.9.4-3.8.6-5.6.2-1.9.2-3.8.3-5.7.1-1.9 0-3.8 0-5.6.1-3.7.6-7.5 1.5-11.1.4-1.8 1-3.6 2.2-5 1.2-1.4 2.8-2.4 4.6-3-1.8.4-3.6 1.4-5 2.7-.7.7-1.2 1.5-1.6 2.4-.4.9-.7 1.8-1 2.7-.6 1.8-.9 3.7-1.2 5.6-.3 1.9-.5 3.8-.6 5.7v.6c-4.1-5.7-5.1-13-5.1-13.1h-.1c-.2-1.6-.3-3.2-.4-4.8-.1-1.7 0-3.4.1-5.2.1-1.7.4-3.4 1.2-4.9.7-1.3 1.8-2.5 3.3-3.1 0 .7 0 1.5.1 2.2.3 1.9 1 3.9 2.4 5.3 1.4 1.5 3.4 2.2 5.3 2.4 3.9.6 7.9-.6 10.8-3-1.6 1-3.3 1.8-5.2 2.2-1.8.4-3.7.4-5.5.1-1.8-.4-3.6-1-4.8-2.3-1.2-1.3-1.9-3.1-2.1-4.9-.5-3.6.5-7.5 2.7-10.4 1.2-1.4 2.7-2.6 4.3-3.5 1-.6 2.2-1 3.3-1.4-.2.4-.3.7-.5 1.1-.7 1.7-1.1 3.6-1.2 5.4-.1 1.9 0 3.7.4 5.5.4 1.8 1 3.6 2.2 5.1.6.7 1.4 1.4 2.2 1.8.8.4 1.7.7 2.6.9 1.8.3 3.6.2 5.2-.6 1 .8 2.2 1.5 3.4 2.1 2 .8 4.1 1.3 6.2 1.4 2.1.2 4.2.1 6.3-.2 4.2-.7 8.1-2.2 12.2-2.8 2.6-.3 5.3-.5 7.8-.1l1.2.3c-.2-.1-.4-.1-.6-.2 1.3.3 2.5.7 3.6 1.3 3.5 1.9 6.1 5.4 7.5 9.2.1.2.2.5.2.7.5 1.8.9 3.6 1.1 5.4 0 .2 0 .3.1.5 0 .6-.1 1.3-.2 1.9.1-.3.2-.5.3-.8.1 1.3 0 2.6 0 3.9 0 3.7.4 7.5.9 11.2.3 1.8.7 3.7 1.1 5.5.4 1.8.2 3.7.1 5.5.1-.9.3-1.8.4-2.8.1-.9 0-1.9-.1-2.8-.1-.9-.3-1.8-.5-2.8s-.3-1.8-.4-2.8c-.4-3.7-.7-7.4-.6-11.1.1-1.8.1-3.8-.1-5.6 0-.3-.1-.7-.1-1 .1-.5.1-1 .2-1.5.3-1.3.3-3 .6-4.6zM80 38.4c-1.7-.5-3.4-1.3-4.3-2.6-1-1.4-1.5-3.1-1.9-4.9-.3-1.7-.4-3.5-.3-5.3.2-2.4.8-4.8 2-6.9.2 0 .5-.1.8-.1-.2 0-.5 0-.7.1.6-.9 1.2-1.7 2.1-2.4 1.3-1.2 2.8-2.2 4.4-3 1.2-.6 2.6-1.1 3.9-1.5-2.2 1.6-4 3.8-5.2 6.4-.9 2-1.1 4.2-1.2 6.3-.1 2.1.2 4.3.7 6.3s1.6 4 3 5.7c.5.6 1.1 1.2 1.8 1.7-1.7.6-3.5.6-5.1.2z" fill="#1b141c" stroke-width="none" opacity="1" stroke="none"></path></g><g id="svga-group-glasses-single-move" transform="matrix(1,0,0,1,0,0)"><g id="svga-group-glasses-single"></g></g></g></g></g><rect id="svga-credit-rect" width="200" height="15" x="0" y="185" fill="#ecf0f1" opacity="0.5" style="display: none;"></rect><text id="svga-credit-text" font-family="Avenir Next, Roboto, Helvetica, Arial, sans-serif" font-size="10px" text-anchor="start" font-weight="400" size="10px" anchor="start" weight="400" fill="#333333" x="33.402061462402344" y="182.71133995056152" style="display: none;"><tspan id="SvgjsTspan11945" dy="13" x="33.402061462402344">Created on AvatarMaker.com</tspan></text></g><defs id="SvgjsDefs11892"></defs></svg>